<svg xmlns="http://www.w3.org/2000/svg" xmlns:xlink="http://www.w3.org/1999/xlink" viewBox="0 0 600 600" width="600" height="600" preserveAspectRatio="xMidYMid meet" style="width: 100%; height: 100%; transform: translate3d(0px, 0px, 0px); content-visibility: visible;"><defs><clipPath id="__lottie_element_554"><rect width="600" height="600" x="0" y="0"></rect></clipPath></defs><g clip-path="url(#__lottie_element_554)"><g transform="matrix(1.8514599800109863,0,0,1.8514599800109863,13.018402099609375,23.20672607421875)" opacity="1" style="display: block;"><g opacity="1" transform="matrix(1,0,0,1,172.16400146484375,58.29100036621094)"><path stroke-linecap="butt" stroke-linejoin="miter" fill-opacity="0" stroke-miterlimit="10" stroke="rgb(167,169,172)" stroke-opacity="1" stroke-width="10" d=" M-48.483001708984375,53.29100036621094 C-48.483001708984375,53.29100036621094 -48.483001708984375,-10.569000244140625 -48.483001708984375,-10.569000244140625 C-48.483001708984375,-34.066001892089844 -29.257999420166016,-53.29100036621094 -5.761000156402588,-53.29100036621094 C-5.761000156402588,-53.29100036621094 5.761000156402588,-53.29100036621094 5.761000156402588,-53.29100036621094 C29.257999420166016,-53.29100036621094 48.483001708984375,-34.066001892089844 48.483001708984375,-10.569000244140625 C48.483001708984375,-10.569000244140625 48.483001708984375,53.29100036621094 48.483001708984375,53.29100036621094"></path></g><g opacity="1" transform="matrix(1,0,0,1,179.58900451660156,182.8300018310547)"><path fill="rgb(240,241,241)" fill-opacity="1" d=" M-179.58900451660156,-182.8300018310547 C-179.58900451660156,-182.8300018310547 102.8949966430664,-182.8300018310547 102.8949966430664,-182.8300018310547 C102.8949966430664,-182.8300018310547 102.8949966430664,115.78199768066406 102.8949966430664,115.78199768066406 C102.8949966430664,115.78199768066406 -179.58900451660156,115.78199768066406 -179.58900451660156,115.78199768066406 C-179.58900451660156,115.78199768066406 -179.58900451660156,-182.8300018310547 -179.58900451660156,-182.8300018310547z M-179.58900451660156,115.78199768066406 C-179.58900451660156,115.78199768066406 102.8949966430664,115.78199768066406 102.8949966430664,115.78199768066406 C102.8949966430664,115.78199768066406 102.8949966430664,-182.8300018310547 102.8949966430664,-182.8300018310547 C102.8949966430664,-182.8300018310547 -179.58900451660156,-182.8300018310547 -179.58900451660156,-182.8300018310547 C-179.58900451660156,-182.8300018310547 -179.58900451660156,115.78199768066406 -179.58900451660156,115.78199768066406z M97.8949966430664,89.36799621582031 C97.8949966430664,89.36799621582031 71.29299926757812,110.55899810791016 71.29299926757812,110.55899810791016 C71.29299926757812,110.55899810791016 -97.8949966430664,89.36799621582031 -97.8949966430664,89.36799621582031 C-97.8949966430664,89.36799621582031 -97.8949966430664,-110.55899810791016 -97.8949966430664,-110.55899810791016 C-97.8949966430664,-110.55899810791016 97.8949966430664,-110.55899810791016 97.8949966430664,-110.55899810791016 C97.8949966430664,-110.55899810791016 97.8949966430664,89.36799621582031 97.8949966430664,89.36799621582031z"></path><g opacity="1" transform="matrix(1,0,0,1,0,0)"></g></g><g opacity="1" transform="matrix(1,0,0,1,179.58900451660156,182.8300018310547)"><path stroke-linecap="butt" stroke-linejoin="miter" fill-opacity="0" stroke-miterlimit="10" stroke="rgb(167,169,172)" stroke-opacity="1" stroke-width="10" d=" M97.8949966430664,89.36799621582031 C97.8949966430664,89.36799621582031 71.29299926757812,110.55899810791016 71.29299926757812,110.55899810791016 C71.29299926757812,110.55899810791016 -97.8949966430664,89.36799621582031 -97.8949966430664,89.36799621582031 C-97.8949966430664,89.36799621582031 -97.8949966430664,-110.55899810791016 -97.8949966430664,-110.55899810791016 C-97.8949966430664,-110.55899810791016 97.8949966430664,-110.55899810791016 97.8949966430664,-110.55899810791016 C97.8949966430664,-110.55899810791016 97.8949966430664,89.36799621582031 97.8949966430664,89.36799621582031z"></path></g><g opacity="1" transform="matrix(1,0,0,1,149.5659942626953,182.24200439453125)"><path fill="rgb(240,241,241)" fill-opacity="1" d=" M-149.5659942626953,-182.24200439453125 C-149.5659942626953,-182.24200439453125 132.91900634765625,-182.24200439453125 132.91900634765625,-182.24200439453125 C132.91900634765625,-182.24200439453125 132.91900634765625,116.37000274658203 132.91900634765625,116.37000274658203 C132.91900634765625,116.37000274658203 -149.5659942626953,116.37000274658203 -149.5659942626953,116.37000274658203 C-149.5659942626953,116.37000274658203 -149.5659942626953,-182.24200439453125 -149.5659942626953,-182.24200439453125z M-149.5659942626953,116.37000274658203 C-149.5659942626953,116.37000274658203 132.91900634765625,116.37000274658203 132.91900634765625,116.37000274658203 C132.91900634765625,116.37000274658203 132.91900634765625,-182.24200439453125 132.91900634765625,-182.24200439453125 C132.91900634765625,-182.24200439453125 -149.5659942626953,-182.24200439453125 -149.5659942626953,-182.24200439453125 C-149.5659942626953,-182.24200439453125 -149.5659942626953,116.37000274658203 -149.5659942626953,116.37000274658203z M97.8949966430664,109.97200012207031 C97.8949966430664,109.97200012207031 -97.8949966430664,89.95600128173828 -97.8949966430664,89.95600128173828 C-97.8949966430664,89.95600128173828 -97.8949966430664,-109.97200012207031 -97.8949966430664,-109.97200012207031 C-97.8949966430664,-109.97200012207031 97.8949966430664,-109.97200012207031 97.8949966430664,-109.97200012207031 C97.8949966430664,-109.97200012207031 97.8949966430664,109.97200012207031 97.8949966430664,109.97200012207031z"></path><g opacity="1" transform="matrix(1,0,0,1,0,0)"></g></g><g opacity="1" transform="matrix(1,0,0,1,149.5659942626953,182.24200439453125)"><path stroke-linecap="butt" stroke-linejoin="miter" fill-opacity="0" stroke-miterlimit="10" stroke="rgb(167,169,172)" stroke-opacity="1" stroke-width="10" d=" M97.8949966430664,109.97200012207031 C97.8949966430664,109.97200012207031 -97.8949966430664,89.95600128173828 -97.8949966430664,89.95600128173828 C-97.8949966430664,89.95600128173828 -97.8949966430664,-109.97200012207031 -97.8949966430664,-109.97200012207031 C-97.8949966430664,-109.97200012207031 97.8949966430664,-109.97200012207031 97.8949966430664,-109.97200012207031 C97.8949966430664,-109.97200012207031 97.8949966430664,109.97200012207031 97.8949966430664,109.97200012207031z"></path></g><g opacity="1" transform="matrix(1,0,0,1,137.13499450683594,58.29100036621094)"><path stroke-linecap="butt" stroke-linejoin="miter" fill-opacity="0" stroke-miterlimit="10" stroke="rgb(167,169,172)" stroke-opacity="1" stroke-width="10" d=" M-48.481998443603516,53.29100036621094 C-48.481998443603516,53.29100036621094 -48.481998443603516,-10.569000244140625 -48.481998443603516,-10.569000244140625 C-48.481998443603516,-34.066001892089844 -29.256999969482422,-53.29100036621094 -5.760000228881836,-53.29100036621094 C-5.760000228881836,-53.29100036621094 5.76200008392334,-53.29100036621094 5.76200008392334,-53.29100036621094 C29.259000778198242,-53.29100036621094 48.481998443603516,-34.066001892089844 48.481998443603516,-10.569000244140625 C48.481998443603516,-10.569000244140625 48.481998443603516,53.29100036621094 48.481998443603516,53.29100036621094"></path></g><g opacity="1" transform="matrix(1,0,0,1,185.93499755859375,110.01599884033203)"><path fill="rgb(167,169,172)" fill-opacity="1" d=" M-185.93499755859375,-110.01599884033203 C-185.93499755859375,-110.01599884033203 96.54900360107422,-110.01599884033203 96.54900360107422,-110.01599884033203 C96.54900360107422,-110.01599884033203 96.54900360107422,188.5959930419922 96.54900360107422,188.5959930419922 C96.54900360107422,188.5959930419922 -185.93499755859375,188.5959930419922 -185.93499755859375,188.5959930419922 C-185.93499755859375,188.5959930419922 -185.93499755859375,-110.01599884033203 -185.93499755859375,-110.01599884033203z M-185.93499755859375,188.5959930419922 C-185.93499755859375,188.5959930419922 96.54900360107422,188.5959930419922 96.54900360107422,188.5959930419922 C96.54900360107422,188.5959930419922 96.54900360107422,-110.01599884033203 96.54900360107422,-110.01599884033203 C96.54900360107422,-110.01599884033203 -185.93499755859375,-110.01599884033203 -185.93499755859375,-110.01599884033203 C-185.93499755859375,-110.01599884033203 -185.93499755859375,188.5959930419922 -185.93499755859375,188.5959930419922z M10.545000076293945,0 C10.545000076293945,5.822999954223633 5.822999954223633,10.543999671936035 -0.0010000000474974513,10.543999671936035 C-5.823999881744385,10.543999671936035 -10.543999671936035,5.822999954223633 -10.543999671936035,0 C-10.543999671936035,-5.823999881744385 -5.823999881744385,-10.543999671936035 -0.0010000000474974513,-10.543999671936035 C5.822999954223633,-10.543999671936035 10.545000076293945,-5.823999881744385 10.545000076293945,0z"></path><g opacity="1" transform="matrix(1,0,0,1,0,0)"></g></g><g opacity="1" transform="matrix(1,0,0,1,67.6719970703125,158.86199951171875)"><path fill="rgb(255,255,255)" fill-opacity="1" d=" M-67.6719970703125,-158.86199951171875 C-67.6719970703125,-158.86199951171875 214.81199645996094,-158.86199951171875 214.81199645996094,-158.86199951171875 C214.81199645996094,-158.86199951171875 214.81199645996094,139.75 214.81199645996094,139.75 C214.81199645996094,139.75 -67.6719970703125,139.75 -67.6719970703125,139.75 C-67.6719970703125,139.75 -67.6719970703125,-158.86199951171875 -67.6719970703125,-158.86199951171875z M-67.6719970703125,139.75 C-67.6719970703125,139.75 214.81199645996094,139.75 214.81199645996094,139.75 C214.81199645996094,139.75 214.81199645996094,-158.86199951171875 214.81199645996094,-158.86199951171875 C214.81199645996094,-158.86199951171875 -67.6719970703125,-158.86199951171875 -67.6719970703125,-158.86199951171875 C-67.6719970703125,-158.86199951171875 -67.6719970703125,139.75 -67.6719970703125,139.75z M13.956000328063965,67.91300201416016 C13.956000328063965,67.91300201416016 6.0269999504089355,90.65799713134766 6.0269999504089355,90.65799713134766 C6.0269999504089355,90.65799713134766 -64.47200012207031,65.66100311279297 -64.47200012207031,65.66100311279297 C-64.47200012207031,65.66100311279297 -34.518001556396484,-90.65799713134766 -34.518001556396484,-90.65799713134766 C-34.518001556396484,-90.65799713134766 64.47200012207031,-71.68900299072266 64.47200012207031,-71.68900299072266 C64.47200012207031,-71.68900299072266 35.79399871826172,75.37100219726562 35.79399871826172,75.37100219726562 C35.79399871826172,75.37100219726562 13.956000328063965,67.91300201416016 13.956000328063965,67.91300201416016z"></path><g opacity="1" transform="matrix(1,0,0,1,0,0)"></g></g><g opacity="1" transform="matrix(1,0,0,1,67.6719970703125,158.86199951171875)"><path stroke-linecap="butt" stroke-linejoin="round" fill-opacity="0" stroke="rgb(167,169,172)" stroke-opacity="1" stroke-width="6.402" d=" M13.956000328063965,67.91300201416016 C13.956000328063965,67.91300201416016 6.0269999504089355,90.65799713134766 6.0269999504089355,90.65799713134766 C6.0269999504089355,90.65799713134766 -64.47200012207031,65.66100311279297 -64.47200012207031,65.66100311279297 C-64.47200012207031,65.66100311279297 -34.518001556396484,-90.65799713134766 -34.518001556396484,-90.65799713134766 C-34.518001556396484,-90.65799713134766 64.47200012207031,-71.68900299072266 64.47200012207031,-71.68900299072266 C64.47200012207031,-71.68900299072266 35.79399871826172,75.37100219726562 35.79399871826172,75.37100219726562 C35.79399871826172,75.37100219726562 13.956000328063965,67.91300201416016 13.956000328063965,67.91300201416016z"></path></g><g opacity="1" transform="matrix(1,0,0,1,88.58300018310547,241.87600708007812)"><path fill="rgb(255,255,255)" fill-opacity="1" d=" M-88.58300018310547,-241.87600708007812 C-88.58300018310547,-241.87600708007812 193.9010009765625,-241.87600708007812 193.9010009765625,-241.87600708007812 C193.9010009765625,-241.87600708007812 193.9010009765625,56.736000061035156 193.9010009765625,56.736000061035156 C193.9010009765625,56.736000061035156 -88.58300018310547,56.736000061035156 -88.58300018310547,56.736000061035156 C-88.58300018310547,56.736000061035156 -88.58300018310547,-241.87600708007812 -88.58300018310547,-241.87600708007812z M-88.58300018310547,56.736000061035156 C-88.58300018310547,56.736000061035156 193.9010009765625,56.736000061035156 193.9010009765625,56.736000061035156 C193.9010009765625,56.736000061035156 193.9010009765625,-241.87600708007812 193.9010009765625,-241.87600708007812 C193.9010009765625,-241.87600708007812 -88.58300018310547,-241.87600708007812 -88.58300018310547,-241.87600708007812 C-88.58300018310547,-241.87600708007812 -88.58300018310547,56.736000061035156 -88.58300018310547,56.736000061035156z M-14.883999824523926,7.644000053405762 C-14.883999824523926,7.644000053405762 14.883999824523926,-7.64300012588501 14.883999824523926,-7.64300012588501"></path><g opacity="1" transform="matrix(1,0,0,1,0,0)"></g></g><g opacity="1" transform="matrix(1,0,0,1,88.58300018310547,241.87600708007812)"><path stroke-linecap="round" stroke-linejoin="round" fill-opacity="0" stroke="rgb(167,169,172)" stroke-opacity="1" stroke-width="6.402" d=" M-14.883999824523926,7.644000053405762 C-14.883999824523926,7.644000053405762 14.883999824523926,-7.64300012588501 14.883999824523926,-7.64300012588501"></path></g><g opacity="0.3" transform="matrix(1,0,0,1,44.770999908447266,94.3759994506836)"><path stroke-linecap="butt" stroke-linejoin="round" fill-opacity="0" stroke="rgb(167,169,172)" stroke-opacity="1" stroke-width="2" d=" M-1.7020000219345093,-0.4050000011920929 C-1.7020000219345093,-0.4050000011920929 1.7020000219345093,0.4050000011920929 1.7020000219345093,0.4050000011920929"></path></g><g opacity="0.3" transform="matrix(1,0,0,1,77.50499725341797,102.16500091552734)"><path stroke-linecap="butt" stroke-linejoin="round" fill-opacity="0" stroke-dasharray=" 6.924 2.967" stroke-dashoffset="0" stroke="rgb(167,169,172)" stroke-opacity="1" stroke-width="2" d=" M-28.145999908447266,-6.697000026702881 C-28.145999908447266,-6.697000026702881 28.145999908447266,6.697000026702881 28.145999908447266,6.697000026702881"></path></g><g opacity="0.3" transform="matrix(1,0,0,1,108.7959976196289,109.61000061035156)"><path stroke-linecap="butt" stroke-linejoin="round" fill-opacity="0" stroke="rgb(167,169,172)" stroke-opacity="1" stroke-width="2" d=" M-1.7020000219345093,-0.4059999883174896 C-1.7020000219345093,-0.4059999883174896 1.7020000219345093,0.4059999883174896 1.7020000219345093,0.4059999883174896"></path></g><g opacity="0.3" transform="matrix(1,0,0,1,42.465999603271484,107.9749984741211)"><path stroke-linecap="butt" stroke-linejoin="round" fill-opacity="0" stroke="rgb(167,169,172)" stroke-opacity="1" stroke-width="2" d=" M-1.690999984741211,-0.4490000009536743 C-1.690999984741211,-0.4490000009536743 1.690999984741211,0.4490000009536743 1.690999984741211,0.4490000009536743"></path></g><g opacity="0.3" transform="matrix(1,0,0,1,74.7490005493164,116.53800201416016)"><path stroke-linecap="butt" stroke-linejoin="round" fill-opacity="0" stroke-dasharray=" 6.87 2.944" stroke-dashoffset="0" stroke="rgb(167,169,172)" stroke-opacity="1" stroke-width="2" d=" M-27.746000289916992,-7.360000133514404 C-27.746000289916992,-7.360000133514404 27.746000289916992,7.360000133514404 27.746000289916992,7.360000133514404"></path></g><g opacity="0.3" transform="matrix(1,0,0,1,105.60900115966797,124.7239990234375)"><path stroke-linecap="butt" stroke-linejoin="round" fill-opacity="0" stroke="rgb(167,169,172)" stroke-opacity="1" stroke-width="2" d=" M-1.690999984741211,-0.4490000009536743 C-1.690999984741211,-0.4490000009536743 1.690999984741211,0.4490000009536743 1.690999984741211,0.4490000009536743"></path></g><g opacity="0.3" transform="matrix(1,0,0,1,39.02799987792969,122.14900207519531)"><path stroke-linecap="butt" stroke-linejoin="round" fill-opacity="0" stroke="rgb(167,169,172)" stroke-opacity="1" stroke-width="2" d=" M-1.6890000104904175,-0.4580000042915344 C-1.6890000104904175,-0.4580000042915344 1.6890000104904175,0.4580000042915344 1.6890000104904175,0.4580000042915344"></path></g><g opacity="0.3" transform="matrix(1,0,0,1,71.41100311279297,130.92999267578125)"><path stroke-linecap="butt" stroke-linejoin="round" fill-opacity="0" stroke-dasharray=" 6.903 2.958" stroke-dashoffset="0" stroke="rgb(167,169,172)" stroke-opacity="1" stroke-width="2" d=" M-27.839000701904297,-7.547999858856201 C-27.839000701904297,-7.547999858856201 27.839000701904297,7.548999786376953 27.839000701904297,7.548999786376953"></path></g><g opacity="0.3" transform="matrix(1,0,0,1,102.36599731445312,139.322998046875)"><path stroke-linecap="butt" stroke-linejoin="round" fill-opacity="0" stroke="rgb(167,169,172)" stroke-opacity="1" stroke-width="2" d=" M-1.6890000104904175,-0.4580000042915344 C-1.6890000104904175,-0.4580000042915344 1.6890000104904175,0.4580000042915344 1.6890000104904175,0.4580000042915344"></path></g><g opacity="0.3" transform="matrix(1,0,0,1,35.720001220703125,135.75100708007812)"><path stroke-linecap="butt" stroke-linejoin="round" fill-opacity="0" stroke="rgb(167,169,172)" stroke-opacity="1" stroke-width="2" d=" M-1.6759999990463257,-0.5049999952316284 C-1.6759999990463257,-0.5049999952316284 1.6759999990463257,0.5049999952316284 1.6759999990463257,0.5049999952316284"></path></g><g opacity="0.3" transform="matrix(1,0,0,1,68.05000305175781,145.48399353027344)"><path stroke-linecap="butt" stroke-linejoin="round" fill-opacity="0" stroke-dasharray=" 6.948 2.978" stroke-dashoffset="0" stroke="rgb(167,169,172)" stroke-opacity="1" stroke-width="2" d=" M-27.802000045776367,-8.369999885559082 C-27.802000045776367,-8.369999885559082 27.802000045776367,8.369999885559082 27.802000045776367,8.369999885559082"></path></g><g opacity="0.3" transform="matrix(1,0,0,1,98.9520034790039,154.78700256347656)"><path stroke-linecap="butt" stroke-linejoin="round" fill-opacity="0" stroke="rgb(167,169,172)" stroke-opacity="1" stroke-width="2" d=" M-1.6759999990463257,-0.5049999952316284 C-1.6759999990463257,-0.5049999952316284 1.6759999990463257,0.5049999952316284 1.6759999990463257,0.5049999952316284"></path></g><g opacity="0.3" transform="matrix(1,0,0,1,33.007999420166016,150.5229949951172)"><path stroke-linecap="butt" stroke-linejoin="round" fill-opacity="0" stroke="rgb(167,169,172)" stroke-opacity="1" stroke-width="2" d=" M-1.6759999990463257,-0.5019999742507935 C-1.6759999990463257,-0.5019999742507935 1.6759999990463257,0.5019999742507935 1.6759999990463257,0.5019999742507935"></path></g><g opacity="0.3" transform="matrix(1,0,0,1,65.24700164794922,160.17300415039062)"><path stroke-linecap="butt" stroke-linejoin="round" fill-opacity="0" stroke-dasharray=" 6.925 2.968" stroke-dashoffset="0" stroke="rgb(167,169,172)" stroke-opacity="1" stroke-width="2" d=" M-27.72100067138672,-8.29800033569336 C-27.72100067138672,-8.29800033569336 27.72100067138672,8.29800033569336 27.72100067138672,8.29800033569336"></path></g><g opacity="0.3" transform="matrix(1,0,0,1,96.06600189208984,169.3979949951172)"><path stroke-linecap="butt" stroke-linejoin="round" fill-opacity="0" stroke="rgb(167,169,172)" stroke-opacity="1" stroke-width="2" d=" M-1.6759999990463257,-0.5009999871253967 C-1.6759999990463257,-0.5009999871253967 1.6759999990463257,0.5019999742507935 1.6759999990463257,0.5019999742507935"></path></g></g><g transform="matrix(1.8514599800109863,0,0,1.8514599800109863,-140.98159790039062,69.20672607421875)" opacity="1" style="display: block;"><g opacity="1" transform="matrix(1,0,0,1,0,4)"><path stroke-linecap="butt" stroke-linejoin="miter" fill-opacity="0" stroke-miterlimit="10" stroke="rgb(101,101,101)" stroke-opacity="1" stroke-width="5" d=" M155.31199645996094,127.15399932861328 C155.31199645996094,127.15399932861328 155.31199645996094,141.50799560546875 155.31199645996094,141.50799560546875"></path></g><g opacity="1" transform="matrix(1,0,0,1,0,4)"><path stroke-linecap="butt" stroke-linejoin="miter" fill-opacity="0" stroke-miterlimit="10" stroke="rgb(101,101,101)" stroke-opacity="1" stroke-width="5" d=" M129.29100036621094,127.15399932861328 C129.29100036621094,127.15399932861328 129.29100036621094,141.50799560546875 129.29100036621094,141.50799560546875"></path></g><g opacity="1" transform="matrix(0.9999270439147949,0.012077384628355503,-0.012077384628355503,0.9999270439147949,141.6719970703125,166.07899475097656)"><path stroke-linecap="butt" stroke-linejoin="miter" fill-opacity="0" stroke-miterlimit="10" stroke="rgb(101,101,101)" stroke-opacity="1" stroke-width="2.74" d=" M-15.628000259399414,6.38100004196167 C-15.628000259399414,6.38100004196167 -3.6110000610351562,-6.38100004196167 15.628000259399414,0.3330000042915344"></path></g></g></g></svg>